#!OML:ASF H:\Pregnant\Project 1\Capture day 1\Session 1\femalepreg.ASF
:FULLY-SPECIFIED
:DEGREES
382
root 12.9994 7.31661 36.0961 -175.618 10.4606 182.062
lowerback 70.0049 15.2986 -20.7506
upperback 4.47642 8.73221 6.97582
thorax -17.6803 6.14845 11.3314
lowerneck -29.6067 6.24554 6.47082
upperneck -0.379125 7.70499 -2.55866
head 4.55622 4.25829 -0.871485
rclavicle 3.49861e-014 -5.02925e-014
rhumerus 31.1411 18.8361 -84.3492
rradius 27.0021
rwrist 18.5043
rhand -67.0131 -26.1943
rfingers 7.12502
rthumb -38.7992 -51.7715
lclavicle 3.49861e-014 -5.02925e-014
lhumerus 42.5424 -3.29872 75.304
lradius 25.1089
lwrist 12.5435
lhand -51.673 -69.2327
lfingers 7.12502
lthumb -24.194 -40.7387
rfemur -47.3139 -71.0124 -8.44911
rtibia 143.145
rfoot -42.4535 58.1656
rtoes 17.3311
lfemur -217.236 -46.4271 -49.9266
ltibia 219.387
lfoot -186.427 -104.256
ltoes 22.2987
383
root 12.9848 7.30704 36.0468 -175.275 10.6131 182.191
lowerback 69.3318 15.121 -20.7062
upperback 4.65114 8.68846 6.87089
thorax -17.4793 6.10833 11.2407
lowerneck -29.3407 6.12977 6.44987
upperneck -0.476067 7.56263 -2.59062
head 4.48764 4.18046 -0.905505
rclavicle 4.57205e-014 -3.67752e-014
rhumerus 31.0138 18.9378 -84.326
rradius 26.8745
rwrist 18.4289
rhand -67.113 -27.6033
rfingers 7.12502
rthumb -38.8934 -53.1538
lclavicle 4.57205e-014 -3.67752e-014
lhumerus 42.5119 -3.42448 75.1782
lradius 25.0488
lwrist 12.4273
lhand -51.6407 -69.2901
lfingers 7.12502
lthumb -24.163 -40.792
rfemur -47.8254 -70.9243 -8.10186
rtibia 143.256
rfoot -42.167 58.2693
rtoes 17.4269
lfemur -216.532 -46.6938 -50.2998
ltibia 219.364
lfoot -192.212 -104.493
ltoes 23.5179
384
root 12.9698 7.29733 35.9971 -174.907 10.7517 182.314
lowerback 68.6215 14.9172 -20.6361
upperback 4.83381 8.63832 6.75088
thorax -17.2655 6.06442 11.1288
lowerneck -29.118 6.00912 6.42956
upperneck -0.527728 7.40765 -2.59104
head 4.43725 4.09814 -0.928666
rclavicle 1.47101e-014 -5.82439e-014
rhumerus 30.8622 18.9804 -84.3268
rradius 26.7511
rwrist 18.3768
rhand -67.2194 -28.935
rfingers 7.12502
rthumb -38.9937 -54.4568
lclavicle 1.47101e-014 -5.82439e-014
lhumerus 42.5001 -3.50533 75.1339
lradius 24.9713
lwrist 11.9548
lhand -51.641 -69.0736
lfingers 7.12502
lthumb -24.1634 -40.5756
rfemur -48.2683 -70.9065 -7.84641
rtibia 143.372
rfoot -41.9484 58.3739
rtoes 17.5054
lfemur -215.781 -47.0438 -50.7515
ltibia 219.351
lfoot -198.196 -104.885
ltoes 24.8465
385
root 12.9547 7.28811 35.9472 -174.531 10.8827 182.427
lowerback 67.8909 14.7068 -20.5677
upperback 5.0238 8.58325 6.63102
thorax -17.0396 6.01809 11.0237
lowerneck -28.9515 5.91003 6.42464
upperneck -0.521245 7.2702 -2.59072
head 4.4138 4.02325 -0.948988
rclavicle -4.25399e-014 3.85642e-014
rhumerus 30.7199 19.0164 -84.3279
rradius 26.618
rwrist 18.3267
rhand -67.3334 -30.2157
rfingers 7.12502
rthumb -39.1012 -55.7067
lclavicle -4.25399e-014 3.85642e-014
lhumerus 42.4981 -3.60516 75.0681
lradius 24.8839
lwrist 11.5368
lhand -51.6023 -68.9058
lfingers 7.12502
lthumb -24.1262 -40.4028
rfemur -48.6033 -70.9489 -7.71794
rtibia 143.489
rfoot -41.82 58.4729
rtoes 17.5413
lfemur -214.942 -47.4861 -51.3546
ltibia 219.365
lfoot -204.3 -105.449
ltoes 26.2891
386
root 12.9401 7.27945 35.8966 -174.14 11.0262 182.528
lowerback 67.12 14.5084 -20.5131
upperback 5.22285 8.53848 6.50723
thorax -16.8012 5.97526 10.9163
lowerneck -28.8159 5.79589 6.3848
upperneck -0.486889 7.11903 -2.53643
head 4.39941 3.94543 -0.94687
rclavicle 3.1408e-014 5.96354e-015
rhumerus 30.5611 19.0166 -84.3312
rradius 26.5
rwrist 18.2868
rhand -67.4388 -31.6337
rfingers 7.12502
rthumb -39.2005 -57.096
lclavicle 3.1408e-014 5.96354e-015
lhumerus 42.4899 -3.7391 75.0159
lradius 24.8049
lwrist 11.2361
lhand -51.5117 -68.8849
lfingers 7.12502
lthumb -24.0393 -40.3705
rfemur -49.2125 -70.9247 -7.31552
rtibia 143.604
rfoot -41.6227 58.5023
rtoes 17.5091
lfemur -214.016 -48.0012 -52.126
ltibia 219.418
lfoot -210.387 -106.227
ltoes 27.8877
387
root 12.9256 7.27148 35.8457 -173.738 11.1656 182.617
lowerback 66.3272 14.3102 -20.4642
upperback 5.42671 8.4932 6.38427
thorax -16.5538 5.9318 10.8157
lowerneck -28.7171 5.68263 6.33006
upperneck -0.415783 6.96897 -2.4619
head 4.40048 3.86889 -0.934161
rclavicle 3.1408e-014 -4.33351e-014
rhumerus 30.4075 19.0099 -84.325
rradius 26.3848
rwrist 18.2441
rhand -67.5386 -33.1782
rfingers 7.12502
rthumb -39.2946 -58.6132
lclavicle 3.1408e-014 -4.33351e-014
lhumerus 42.4742 -3.89499 74.9673
lradius 24.7362
lwrist 11.0956
lhand -51.3796 -69.0558
lfingers 7.12502
lthumb -23.9127 -40.5247
rfemur -49.8819 -70.909 -6.86871
rtibia 143.717
rfoot -41.4205 58.5155
rtoes 17.4523
lfemur -212.973 -48.6062 -53.0964
ltibia 219.505
lfoot -216.265 -107.212
ltoes 29.5903
388
root 12.911 7.26433 35.7944 -173.339 11.2903 182.694
lowerback 65.5518 14.1106 -20.405
upperback 5.62137 8.44703 6.2625
thorax -16.3143 5.88846 10.7143
lowerneck -28.6411 5.56113 6.25452
upperneck -0.317928 6.81047 -2.36055
head 4.41134 3.7896 -0.909576
rclavicle -6.36111e-015 3.37934e-015
rhumerus 30.2394 18.9932 -84.3081
rradius 26.2795
rwrist 18.1994
rhand -67.6245 -34.8587
rfingers 7.12502
rthumb -39.3755 -60.2701
lclavicle -6.36111e-015 3.37934e-015
lhumerus 42.4349 -4.08912 74.9247
lradius 24.6865
lwrist 11.1385
lhand -51.224 -69.3949
lfingers 7.12502
lthumb -23.7635 -40.8443
rfemur -50.5361 -70.9032 -6.44921
rtibia 143.823
rfoot -41.2247 58.5159
rtoes 17.3696
lfemur -211.783 -49.2929 -54.295
ltibia 219.62
lfoot -221.734 -108.368
ltoes 31.3359
389
root 12.8961 7.25794 35.7426 -172.936 11.4009 182.761
lowerback 64.7834 13.9035 -20.3359
upperback 5.81034 8.39458 6.14029
thorax -16.0771 5.84266 10.6139
lowerneck -28.5901 5.44919 6.17891
upperneck -0.194328 6.66215 -2.26306
head 4.4345 3.71453 -0.883912
rclavicle -2.78299e-014 -7.95139e-016
rhumerus 30.0776 18.9855 -84.2754
rradius 26.1723
rwrist 18.1337
rhand -67.7092 -36.5473
rfingers 7.12502
rthumb -39.4553 -61.9354
lclavicle -2.78299e-014 -7.95139e-016
lhumerus 42.3822 -4.27939 74.9038
lradius 24.6531
lwrist 11.2149
lhand -51.0921 -69.7655
lfingers 7.12502
lthumb -23.637 -41.1985
rfemur -51.1702 -70.9267 -6.06942
rtibia 143.925
rfoot -41.0054 58.5382
rtoes 17.3311
lfemur -210.449 -50.0434 -55.7163
ltibia 219.752
lfoot -226.694 -109.656
ltoes 33.0739
390
root 12.8812 7.25112 35.6904 -172.493 11.5022 182.825
lowerback 63.9728 13.6755 -20.2347
upperback 5.99651 8.33919 6.00088
thorax -15.8389 5.79421 10.486
lowerneck -28.533 5.32267 6.09089
upperneck -0.0781731 6.49878 -2.14363
head 4.45298 3.63438 -0.851286
rclavicle 7.95139e-016 -1.45113e-014
rhumerus 29.8771 18.921 -84.2603
rradius 26.0842
rwrist 18.0817
rhand -67.7909 -38.317
rfingers 7.12502
rthumb -39.5323 -63.6825
lclavicle 7.95139e-016 -1.45113e-014
lhumerus 42.3098 -4.45901 74.9625
lradius 24.635
lwrist 11.1641
lhand -50.9973 -70.1023
lfingers 7.12502
lthumb -23.546 -41.5236
rfemur -52.0896 -70.9177 -5.42617
rtibia 144.031
rfoot -40.5214 58.622
rtoes 17.5473
lfemur -209.044 -50.8318 -57.2389
ltibia 219.881
lfoot -231.067 -111.055
ltoes 34.7853
391
root 12.8665 7.24414 35.6379 -172.024 11.6166 182.886
lowerback 63.124 13.4529 -20.141
upperback 6.18243 8.2859 5.85919
thorax -15.5965 5.74551 10.3609
lowerneck -28.4759 5.20645 6.00324
upperneck 0.03376 6.3501 -2.03307
head 4.4712 3.56116 -0.819822
rclavicle -9.54166e-015 -6.16232e-015
rhumerus 29.6858 18.8643 -84.2369
rradius 25.9859
rwrist 18.0151
rhand -67.8796 -40.1545
rfingers 7.12502
rthumb -39.6158 -65.4953
lclavicle -9.54166e-015 -6.16232e-015
lhumerus 42.2277 -4.64862 75.0135
lradius 24.628
lwrist 11.1511
lhand -50.9379 -70.4992
lfingers 7.12502
lthumb -23.489 -41.9132
rfemur -53.2817 -70.8398 -4.52368
rtibia 144.137
rfoot -39.7271 58.7789
rtoes 18.0754
lfemur -207.58 -51.6138 -58.8603
ltibia 220.009
lfoot -234.861 -112.508
ltoes 36.423
392
root 12.8517 7.23645 35.5855 -171.519 11.7364 182.949
lowerback 62.2337 13.2223 -20.0304
upperback 6.36889 8.23451 5.70325
thorax -15.3472 5.69618 10.2156
lowerneck -28.4119 5.08726 5.91159
upperneck 0.12488 6.20142 -1.91686
head 4.48169 3.48957 -0.786317
rclavicle 2.62396e-014 1.80894e-014
rhumerus 29.4772 18.7727 -84.2245
rradius 25.8981
rwrist 17.9532
rhand -67.976 -41.9545
rfingers 7.12502
rthumb -39.7066 -67.2684
lclavicle 2.62396e-014 1.80894e-014
lhumerus 42.1373 -4.83901 75.0993
lradius 24.6414
lwrist 11.0456
lhand -50.9624 -70.8193
lfingers 7.12502
lthumb -23.5126 -42.2363
rfemur -54.6438 -70.7405 -3.47324
rtibia 144.252
rfoot -38.8054 58.9586
rtoes 18.7386
lfemur -206.092 -52.3799 -60.517
ltibia 220.12
lfoot -238.097 -113.954
ltoes 37.9473
393
root 12.8362 7.22797 35.5333 -171.003 11.8552 183.012
lowerback 61.3448 12.9891 -19.9126
upperback 6.54937 8.17922 5.54706
thorax -15.0987 5.64489 10.0718
lowerneck -28.3379 4.98299 5.81349
upperneck 0.195693 6.07766 -1.81241
head 4.48556 3.43008 -0.753118
rclavicle 3.97569e-015 -1.74931e-014
rhumerus 29.281 18.6937 -84.2085
rradius 25.8013
rwrist 17.8867
rhand -68.0714 -43.9668
rfingers 7.12502
rthumb -39.7964 -69.2539
lclavicle 3.97569e-015 -1.74931e-014
lhumerus 42.0471 -5.03055 75.1652
lradius 24.6531
lwrist 10.9368
lhand -51.0421 -71.1083
lfingers 7.12502
lthumb -23.589 -42.5351
rfemur -57.0013 -69.9327 -1.37088
rtibia 144.382
rfoot -37.5026 58.8013
rtoes 19.1682
lfemur -204.572 -53.1094 -62.213
ltibia 220.205
lfoot -240.822 -115.319
ltoes 39.3
394
root 12.819 7.21862 35.4819 -170.475 11.9374 183.081
lowerback 60.4848 12.7222 -19.7407
upperback 6.71602 8.10636 5.38307
thorax -14.8597 5.58612 9.90801
lowerneck -28.2522 4.88023 5.71157
upperneck 0.243822 5.96 -1.71131
head 4.48096 3.37416 -0.720211
rclavicle -2.06736e-014 2.00773e-014
rhumerus 29.0706 18.5995 -84.2062
rradius 25.7082
rwrist 17.8391
rhand -68.163 -46.2753
rfingers 7.12502
rthumb -39.8827 -71.5366
lclavicle -2.06736e-014 2.00773e-014
lhumerus 41.947 -5.23657 75.2241
lradius 24.6625
lwrist 10.8336
lhand -51.1477 -71.4044
lfingers 7.12502
lthumb -23.6903 -42.8443
rfemur -59.1275 -69.1224 0.490416
rtibia 144.527
rfoot -36.5654 58.5016
rtoes 19.197
lfemur -203.089 -53.8095 -63.814
ltibia 220.218
lfoot -242.929 -116.423
ltoes 40.3293
